<?xml version="1.0" encoding="UTF-8" standalone="no"?>
<!DOCTYPE svg PUBLIC "-//W3C//DTD SVG 1.1//EN"
 "http://www.w3.org/Graphics/SVG/1.1/DTD/svg11.dtd">
<!-- Generated by graphviz version 2.43.0 (0)
 -->
<!-- Title: G Pages: 1 -->
<svg width="978pt" height="461pt"
 viewBox="0.00 0.00 704.00 332.00" xmlns="http://www.w3.org/2000/svg" xmlns:xlink="http://www.w3.org/1999/xlink">
<g id="graph0" class="graph" transform="scale(1.39 1.39) rotate(0) translate(4 328)">
<title>G</title>
<polygon fill="white" stroke="transparent" points="-4,4 -4,-328 700,-328 700,4 -4,4"/>
<!-- 126480937294240 -->
<g id="node1" class="node">
<title>126480937294240</title>
<polygon fill="none" stroke="black" points="438,-240.5 438,-323.5 676,-323.5 676,-240.5 438,-240.5"/>
<polygon fill="black" stroke="transparent" points="438,-240.5 438,-323.5 676,-323.5 676,-240.5 438,-240.5"/>
<polygon fill="black" stroke="transparent" points="440,-281 440,-321 674,-321 674,-281 440,-281"/>
<polygon fill="none" stroke="black" points="440,-281 440,-321 674,-321 674,-281 440,-281"/>
<text text-anchor="start" x="452" y="-298.2" font-family="Helvetica,sans-Serif" font-weight="bold" font-size="16.00" fill="white">stage_input</text>
<text text-anchor="start" x="557" y="-298.2" font-family="Helvetica,sans-Serif" font-size="16.00" fill="white"> (InputLayer)</text>
<polygon fill="white" stroke="transparent" points="440,-242 440,-279 662,-279 662,-242 440,-242"/>
<polygon fill="none" stroke="black" points="440,-242 440,-279 662,-279 662,-242 440,-242"/>
<text text-anchor="start" x="456" y="-257.8" font-family="Helvetica,sans-Serif" font-size="14.00">Output shape: </text>
<text text-anchor="start" x="561" y="-257.8" font-family="Helvetica,sans-Serif" font-weight="bold" font-size="14.00">(None, 10)</text>
</g>
<!-- 126481308056800 -->
<g id="node3" class="node">
<title>126481308056800</title>
<polygon fill="none" stroke="black" points="0,-120.5 0,-203.5 554,-203.5 554,-120.5 0,-120.5"/>
<polygon fill="black" stroke="transparent" points="0,-120.5 0,-203.5 554,-203.5 554,-120.5 0,-120.5"/>
<polygon fill="black" stroke="transparent" points="2,-161 2,-201 552,-201 552,-161 2,-161"/>
<polygon fill="none" stroke="black" points="2,-161 2,-201 552,-201 552,-161 2,-161"/>
<text text-anchor="start" x="180.5" y="-178.2" font-family="Helvetica,sans-Serif" font-weight="bold" font-size="16.00" fill="white">Generator</text>
<text text-anchor="start" x="272.5" y="-178.2" font-family="Helvetica,sans-Serif" font-size="16.00" fill="white"> (Functional)</text>
<polygon fill="white" stroke="transparent" points="2,-122 2,-159 319,-159 319,-122 2,-122"/>
<polygon fill="none" stroke="black" points="2,-122 2,-159 319,-159 319,-122 2,-122"/>
<text text-anchor="start" x="13" y="-137.8" font-family="Helvetica,sans-Serif" font-size="14.00">Input shape: </text>
<text text-anchor="start" x="106" y="-137.8" font-family="Helvetica,sans-Serif" font-weight="bold" font-size="14.00">[(None, 10), (None, 100)]</text>
<polygon fill="white" stroke="transparent" points="321,-122 321,-159 552,-159 552,-122 321,-122"/>
<polygon fill="none" stroke="black" points="321,-122 321,-159 552,-159 552,-122 321,-122"/>
<text text-anchor="start" x="332" y="-137.8" font-family="Helvetica,sans-Serif" font-size="14.00">Output shape: </text>
<text text-anchor="start" x="437" y="-137.8" font-family="Helvetica,sans-Serif" font-weight="bold" font-size="14.00">(None, 2042)</text>
</g>
<!-- 126480937294240&#45;&gt;126481308056800 -->
<g id="edge1" class="edge">
<title>126480937294240&#45;&gt;126481308056800</title>
<path fill="none" stroke="black" stroke-width="2" d="M496,-240.37C496,-240.37 496,-213.56 496,-213.56"/>
<polygon fill="black" stroke="black" stroke-width="2" points="499.5,-213.56 496,-203.56 492.5,-213.56 499.5,-213.56"/>
</g>
<!-- 126481306219392 -->
<g id="node4" class="node">
<title>126481306219392</title>
<polygon fill="none" stroke="black" points="162,-0.5 162,-83.5 696,-83.5 696,-0.5 162,-0.5"/>
<polygon fill="black" stroke="transparent" points="162,-0.5 162,-83.5 696,-83.5 696,-0.5 162,-0.5"/>
<polygon fill="black" stroke="transparent" points="164,-41 164,-81 694,-81 694,-41 164,-41"/>
<polygon fill="none" stroke="black" points="164,-41 164,-81 694,-81 694,-41 164,-41"/>
<text text-anchor="start" x="317" y="-58.2" font-family="Helvetica,sans-Serif" font-weight="bold" font-size="16.00" fill="white">Discriminator</text>
<text text-anchor="start" x="440" y="-58.2" font-family="Helvetica,sans-Serif" font-size="16.00" fill="white"> (Functional)</text>
<polygon fill="white" stroke="transparent" points="164,-2 164,-39 490,-39 490,-2 164,-2"/>
<polygon fill="none" stroke="black" points="164,-2 164,-39 490,-39 490,-2 164,-2"/>
<text text-anchor="start" x="175" y="-17.8" font-family="Helvetica,sans-Serif" font-size="14.00">Input shape: </text>
<text text-anchor="start" x="268" y="-17.8" font-family="Helvetica,sans-Serif" font-weight="bold" font-size="14.00">[(None, 10), (None, 2042)]</text>
<polygon fill="white" stroke="transparent" points="492,-2 492,-39 694,-39 694,-2 492,-2"/>
<polygon fill="none" stroke="black" points="492,-2 492,-39 694,-39 694,-2 492,-2"/>
<text text-anchor="start" x="503" y="-17.8" font-family="Helvetica,sans-Serif" font-size="14.00">Output shape: </text>
<text text-anchor="start" x="608" y="-17.8" font-family="Helvetica,sans-Serif" font-weight="bold" font-size="14.00">(None, 1)</text>
</g>
<!-- 126480937294240&#45;&gt;126481306219392 -->
<g id="edge3" class="edge">
<title>126480937294240&#45;&gt;126481306219392</title>
<path fill="none" stroke="black" stroke-width="2" d="M615,-240.47C615,-240.47 615,-93.83 615,-93.83"/>
<polygon fill="black" stroke="black" stroke-width="2" points="618.5,-93.83 615,-83.83 611.5,-93.83 618.5,-93.83"/>
</g>
<!-- 126481305920208 -->
<g id="node2" class="node">
<title>126481305920208</title>
<polygon fill="none" stroke="black" points="159,-240.5 159,-323.5 395,-323.5 395,-240.5 159,-240.5"/>
<polygon fill="black" stroke="transparent" points="159,-240.5 159,-323.5 395,-323.5 395,-240.5 159,-240.5"/>
<polygon fill="black" stroke="transparent" points="161,-281 161,-321 393,-321 393,-281 161,-281"/>
<polygon fill="none" stroke="black" points="161,-281 161,-321 393,-321 393,-281 161,-281"/>
<text text-anchor="start" x="173" y="-298.2" font-family="Helvetica,sans-Serif" font-weight="bold" font-size="16.00" fill="white">noise_input</text>
<text text-anchor="start" x="276" y="-298.2" font-family="Helvetica,sans-Serif" font-size="16.00" fill="white"> (InputLayer)</text>
<polygon fill="white" stroke="transparent" points="161,-242 161,-279 386,-279 386,-242 161,-242"/>
<polygon fill="none" stroke="black" points="161,-242 161,-279 386,-279 386,-242 161,-242"/>
<text text-anchor="start" x="174" y="-257.8" font-family="Helvetica,sans-Serif" font-size="14.00">Output shape: </text>
<text text-anchor="start" x="279" y="-257.8" font-family="Helvetica,sans-Serif" font-weight="bold" font-size="14.00">(None, 100)</text>
</g>
<!-- 126481305920208&#45;&gt;126481308056800 -->
<g id="edge2" class="edge">
<title>126481305920208&#45;&gt;126481308056800</title>
<path fill="none" stroke="black" stroke-width="2" d="M277,-240.37C277,-240.37 277,-213.56 277,-213.56"/>
<polygon fill="black" stroke="black" stroke-width="2" points="280.5,-213.56 277,-203.56 273.5,-213.56 280.5,-213.56"/>
</g>
<!-- 126481308056800&#45;&gt;126481306219392 -->
<g id="edge4" class="edge">
<title>126481308056800&#45;&gt;126481306219392</title>
<path fill="none" stroke="black" stroke-width="2" d="M358,-120.37C358,-120.37 358,-93.56 358,-93.56"/>
<polygon fill="black" stroke="black" stroke-width="2" points="361.5,-93.56 358,-83.56 354.5,-93.56 361.5,-93.56"/>
</g>
</g>
</svg>
